<?xml version="1.0" encoding="UTF-8"?>
<!DOCTYPE svg PUBLIC "-//W3C//DTD SVG 1.1//EN" "http://www.w3.org/Graphics/SVG/1.1/DTD/svg11.dtd">
<!-- Creator: CorelDRAW 2018 (64-Bit) -->
<svg xmlns="http://www.w3.org/2000/svg" xml:space="preserve" width="1.80008in" height="1.80008in" version="1.1" style="shape-rendering:geometricPrecision; text-rendering:geometricPrecision; image-rendering:optimizeQuality; fill-rule:evenodd; clip-rule:evenodd"
viewBox="0 0 1800.08 1800.08"
 xmlns:xlink="http://www.w3.org/1999/xlink">
 <defs>
  <style type="text/css">
   <![CDATA[
    .str0 {stroke:#FEFEFE;stroke-width:6.94;stroke-miterlimit:2.61313}
    .str1 {stroke:#373435;stroke-width:6.94;stroke-miterlimit:2.61313}
    .fil0 {fill:#FEFEFE}
    .fil2 {fill:#373435}
    .fil1 {fill:#06377B}
   ]]>
  </style>
 </defs>
 <g id="Layer_x0020_1">
  <metadata id="CorelCorpID_0Corel-Layer"/>
  <rect class="fil0 str0" width="1800.08" height="1800.08"/>
  <rect class="fil0 str1" x="-22675.05" y="-2283.86" width="1800.09" height="1800.09"/>
  <rect class="fil0 str1" x="-19074.86" y="-2283.86" width="1800.09" height="1800.09"/>
  <rect class="fil0 str1" x="-17274.77" y="-2283.86" width="1800.09" height="1800.09"/>
  <rect class="fil0 str1" x="-15474.67" y="-2283.86" width="1800.09" height="1800.09"/>
  <rect class="fil0 str1" x="-11874.49" y="-2283.86" width="1800.09" height="1800.09"/>
  <rect class="fil0 str1" x="-8274.3" y="-2283.86" width="1800.09" height="1800.09"/>
  <rect class="fil0 str1" x="-6474.21" y="-2283.86" width="1800.09" height="1800.09"/>
  <rect class="fil0 str1" x="-35275.71" y="-483.77" width="1800.09" height="1800.09"/>
  <rect class="fil0 str1" x="-33475.61" y="-483.77" width="1800.09" height="1800.09"/>
  <rect class="fil0 str1" x="-29875.43" y="-483.77" width="1800.09" height="1800.09"/>
  <rect class="fil0 str1" x="-28075.33" y="-483.77" width="1800.09" height="1800.09"/>
  <rect class="fil0 str1" x="-26275.24" y="-483.77" width="1800.09" height="1800.09"/>
  <rect class="fil0 str1" x="-19074.86" y="-483.77" width="1800.09" height="1800.09"/>
  <rect class="fil0 str1" x="-11874.49" y="-483.77" width="1800.09" height="1800.09"/>
  <rect class="fil0 str1" x="-8274.3" y="-483.77" width="1800.09" height="1800.09"/>
  <rect class="fil0 str1" x="-6474.21" y="-483.77" width="1800.09" height="1800.09"/>
  <rect class="fil0 str1" x="-35275.71" y="1316.33" width="1800.09" height="1800.09"/>
  <rect class="fil0 str1" x="-33475.61" y="1316.33" width="1800.09" height="1800.09"/>
  <rect class="fil0 str1" x="-29875.43" y="1316.33" width="1800.09" height="1800.09"/>
  <rect class="fil0 str1" x="-28075.33" y="1316.33" width="1800.09" height="1800.09"/>
  <rect class="fil0 str1" x="-26275.24" y="1316.33" width="1800.09" height="1800.09"/>
  <rect class="fil0 str1" x="-22675.05" y="1316.33" width="1800.09" height="1800.09"/>
  <rect class="fil0 str1" x="-20874.96" y="1316.33" width="1800.09" height="1800.09"/>
  <rect class="fil0 str1" x="-19074.86" y="1316.33" width="1800.09" height="1800.09"/>
  <rect class="fil0 str1" x="-17274.77" y="1316.33" width="1800.09" height="1800.09"/>
  <rect class="fil0 str1" x="-15474.67" y="1316.33" width="1800.09" height="1800.09"/>
  <rect class="fil0 str1" x="-11874.49" y="1316.33" width="1800.09" height="1800.09"/>
  <rect class="fil0 str1" x="-8274.3" y="1316.33" width="1800.09" height="1800.09"/>
  <rect class="fil0 str1" x="-6474.21" y="1316.33" width="1800.09" height="1800.09"/>
  <rect class="fil0 str1" x="-35275.71" y="3116.42" width="1800.09" height="1800.09"/>
  <rect class="fil0 str1" x="-33475.61" y="3116.42" width="1800.09" height="1800.09"/>
  <rect class="fil0 str1" x="-26275.24" y="3116.42" width="1800.09" height="1800.09"/>
  <rect class="fil0 str1" x="-22675.05" y="3116.42" width="1800.09" height="1800.09"/>
  <rect class="fil0 str1" x="-20874.96" y="3116.42" width="1800.09" height="1800.09"/>
  <rect class="fil0 str1" x="-19074.86" y="3116.42" width="1800.09" height="1800.09"/>
  <rect class="fil0 str1" x="-11874.49" y="3116.42" width="1800.09" height="1800.09"/>
  <rect class="fil0 str1" x="-8274.3" y="3116.42" width="1800.09" height="1800.09"/>
  <rect class="fil0 str1" x="-6474.21" y="3116.42" width="1800.09" height="1800.09"/>
  <rect class="fil0 str1" x="-35275.71" y="4916.51" width="1800.09" height="1800.09"/>
  <rect class="fil0 str1" x="-33475.61" y="4916.51" width="1800.09" height="1800.09"/>
  <rect class="fil0 str1" x="-31675.52" y="4916.51" width="1800.09" height="1800.09"/>
  <rect class="fil0 str1" x="-29875.43" y="4916.51" width="1800.09" height="1800.09"/>
  <rect class="fil0 str1" x="-28075.33" y="4916.51" width="1800.09" height="1800.09"/>
  <rect class="fil0 str1" x="-26275.24" y="4916.51" width="1800.09" height="1800.09"/>
  <rect class="fil0 str1" x="-24475.14" y="4916.51" width="1800.09" height="1800.09"/>
  <rect class="fil0 str1" x="-22675.05" y="4916.51" width="1800.09" height="1800.09"/>
  <rect class="fil0 str1" x="-20874.96" y="4916.51" width="1800.09" height="1800.09"/>
  <rect class="fil0 str1" x="-19074.86" y="4916.51" width="1800.09" height="1800.09"/>
  <path class="fil1" d="M-28085.36 1316.33l0 1020.27c0,324.69 -172.48,612.07 -432.69,779.81l-1357.39 0 0 -349.91 196.09 0c231.2,33.41 355.56,-257.69 415.24,-592.91l0 610.64 655.96 0 0 -1467.9 522.78 0zm-1723.66 0l-66.42 0 0 476.87c156.1,-64.61 122.01,-295.52 66.42,-476.87z"/>
  <rect class="fil0 str1" x="-17274.77" y="4916.51" width="1800.09" height="1800.09"/>
  <rect class="fil0 str1" x="-15474.67" y="4916.51" width="1800.09" height="1800.09"/>
  <rect class="fil0 str1" x="-13674.58" y="4916.51" width="1800.09" height="1800.09"/>
  <rect class="fil0 str1" x="-11874.49" y="4916.51" width="1800.09" height="1800.09"/>
  <rect class="fil0 str1" x="-10074.39" y="4916.51" width="1800.09" height="1800.09"/>
  <rect class="fil0 str1" x="-6474.21" y="4916.51" width="1800.09" height="1800.09"/>
  <rect class="fil0 str1" x="-20874.96" y="-2283.86" width="1800.09" height="1800.09"/>
  <rect class="fil0 str1" x="-13674.58" y="-2283.86" width="1800.09" height="1800.09"/>
  <rect class="fil0 str1" x="-10074.39" y="-2283.86" width="1800.09" height="1800.09"/>
  <rect class="fil0 str1" x="-31675.52" y="-483.77" width="1800.09" height="1800.09"/>
  <rect class="fil0 str1" x="-24475.14" y="-483.77" width="1800.09" height="1800.09"/>
  <rect class="fil0 str1" x="-22675.05" y="-483.77" width="1800.09" height="1800.09"/>
  <rect class="fil0 str1" x="-20874.96" y="-483.77" width="1800.09" height="1800.09"/>
  <rect class="fil0 str1" x="-17274.77" y="-483.77" width="1800.09" height="1800.09"/>
  <rect class="fil0 str1" x="-15474.67" y="-483.77" width="1800.09" height="1800.09"/>
  <rect class="fil0 str1" x="-13674.58" y="-483.77" width="1800.09" height="1800.09"/>
  <rect class="fil0 str1" x="-10074.39" y="-483.77" width="1800.09" height="1800.09"/>
  <rect class="fil0 str1" x="-31675.52" y="1316.33" width="1800.09" height="1800.09"/>
  <rect class="fil0 str1" x="-24475.14" y="1316.33" width="1800.09" height="1800.09"/>
  <rect class="fil0 str1" x="-13674.58" y="1316.33" width="1800.09" height="1800.09"/>
  <rect class="fil0 str1" x="-10074.39" y="1316.33" width="1800.09" height="1800.09"/>
  <rect class="fil0 str1" x="-31675.52" y="3116.42" width="1800.09" height="1800.09"/>
  <rect class="fil0 str1" x="-29875.43" y="3116.42" width="1800.09" height="1800.09"/>
  <rect class="fil0 str1" x="-28075.33" y="3116.42" width="1800.09" height="1800.09"/>
  <rect class="fil0 str1" x="-24475.14" y="3116.42" width="1800.09" height="1800.09"/>
  <rect class="fil0 str1" x="-17274.77" y="3116.42" width="1800.09" height="1800.09"/>
  <rect class="fil0 str1" x="-15474.67" y="3116.42" width="1800.09" height="1800.09"/>
  <rect class="fil0 str1" x="-13674.58" y="3116.42" width="1800.09" height="1800.09"/>
  <rect class="fil0 str1" x="-10074.39" y="3116.42" width="1800.09" height="1800.09"/>
  <path class="fil1" d="M-28518.05 3116.41c-151.91,97.96 -333.67,155.16 -528.54,155.16l-828.85 0 0 -155.16 1357.39 0z"/>
  <polygon class="fil1" points="-29875.44,3271.57 -31675.52,3271.57 -31675.52,3116.41 -29875.44,3116.41 "/>
  <path class="fil1" d="M-31675.52 3271.57l-838.83 0c-194.9,0 -376.65,-57.2 -528.57,-155.16l1367.4 0 0 155.16z"/>
  <path class="fil1" d="M-33042.91 3116.41c-260.17,-167.74 -432.65,-455.13 -432.65,-779.81l0 -1020.27 570.96 0 0.88 1431 1145.41 1.64 82.8 -678.37 0 1045.81 -1367.4 0zm1367.4 -1800.08l-579.04 0 -0.76 499.98 579.8 1.37 0 -501.35z"/>
  <path class="fil1" d="M-31675.52 1316.33l15.71 0 -1.23 501.39 -14.48 -0.03 0 -501.35zm910.19 0l889.89 0 0 476.87c-27.21,11.26 -60.19,17.5 -99.89,17.5 -429.99,0 -488.16,0 -488.16,0l110.07 955.81 477.98 0 0 349.91 -1800.08 0 0 -1045.81 2.05 -16.77 2.52 695.26 485.35 0.7 -7.31 -892.43 176.78 -193.11c0,0 120.08,-147.38 250.81,-347.92z"/>
  <polygon class="fil1" points="-26644.26,3116.41 -26644.26,1316.33 -26275.25,1316.33 -26275.25,3116.41 "/>
  <g id="_1945732978832">
   <polygon class="fil1" points="-24714.28,1318.46 -24714.28,1316.33 -24475.14,1316.33 -24475.14,1318.46 "/>
   <polygon class="fil1" points="-26194.52,1316.33 -26194.52,3116.41 -26275.25,3116.41 -26275.25,1316.33 "/>
  </g>
  <polygon class="fil1" points="-24435.78,1316.33 -24435.78,1318.46 -24475.14,1318.46 -24475.14,1316.33 "/>
  <path class="fil1" d="M-20874.95 1316.33l-138.4 0 0 2.14 138.4 0 0 -2.14zm-1276.61 0l-464.61 0c63.06,23.73 144.69,35.52 244.84,35.52 86.31,0 159.46,-11.91 219.76,-35.52z"/>
  <path class="fil1" d="M-20874.95 1316.33l140.09 0 0 2.14 -140.09 0 0 -2.14zm765.54 0l332 0 0.99 2.14 -331.94 0 -1.05 -2.14z"/>
  <path class="fil1" d="M-17756.39 1316.33l-298.15 0 0.41 2.14 297.36 0 0.38 -2.14zm-841.52 0l-306.2 0 0.38 2.14 305.38 0 0.44 -2.14z"/>
  <path class="fil1" d="M-16957.12 1316.33l294.46 0 -0.59 2.14 -294.49 0 0.61 -2.14zm1077.91 0l299.94 0 0.64 2.14 -299.96 0 -0.61 -2.14z"/>
  <path class="fil1" d="M-13725.57 1316.33l-359.04 0 0.93 2.14 359.16 0 -1.06 -2.14zm-960.25 0l-278.52 0 0 2.14 278.52 0 0 -2.14z"/>
  <path class="fil1" d="M-13258.45 1316.33l294.46 0 -0.58 2.14 -294.5 0 0.61 -2.14zm1077.91 0l299.93 0 0.65 2.14 -299.96 0 -0.61 -2.14z"/>
  <path class="fil1" d="M-10074.38 1316.33l-291.19 0 1.05 2.14 290.13 0 0 -2.14zm-916.63 0l-278.49 0 0 2.14 278.49 0 0 -2.14z"/>
  <path class="fil1" d="M-10074.38 1316.33l40.82 0 0.99 2.14 -41.81 0 0 -2.14zm1034.84 0l278.49 0 0 2.14 -278.49 0 0 -2.14z"/>
  <path class="fil1" d="M-6475.04 1316.33l-299.94 0 0.61 2.14 299.96 0 -0.64 -2.14zm-1083.38 0l-294.46 0 -0.61 2.14 294.49 0 0.59 -2.14z"/>
  <path class="fil1" d="M-6475.04 1316.33l-299.94 0 -118.15 -416.3 -551.56 0 -113.73 416.3 -294.46 0 522.92 -1800.08 315.36 0 539.57 1800.08zm-508.35 -726.94l-191.12 -680.3 -185.68 680.3 376.8 0z"/>
  <path class="fil1" d="M-10074.38 1316.33l40.82 0 -40.82 -87.22 0 87.22zm1034.84 0l278.49 0 0 -1525.34 405.3 0 0 -274.74 -1090.98 0 0 274.74 407.2 0 0 1525.34z"/>
  <path class="fil1" d="M-10074.38 1316.33l-291.19 0 -198.09 -399.21c-71.39,-142.46 -120.34,-232.31 -146.94,-269.54 -26.25,-36.81 -54.07,-62.47 -83.54,-76.16 -29.79,-13.69 -76.51,-20.54 -140.53,-20.54l-56.35 0 0 765.45 -278.49 0 0 -1800.08 872.51 0c11.85,4.21 22.76,8.81 32.77,13.75 66.91,32.94 120.05,91.58 160.07,175.85 40.03,84.73 60.19,181 60.19,289.67 0,138.19 -30.11,252.01 -90.59,341.86 -60.51,89.85 -150.8,146.33 -271.14,169.85 59.83,46.64 109.13,97.99 147.87,154.05 39.06,56.03 91.55,155.75 157.5,298.65l125.93 269.19 0 87.22zm-916.63 -1058.1l205.52 0c133.16,0 216.11,-7.69 249.38,-22.68 32.97,-14.98 59.22,-41.08 77.8,-77.89 18.87,-36.78 28.18,-83.01 28.18,-138.19 0,-62.03 -12.5,-111.69 -37.13,-150.19 -24.67,-38.07 -59.54,-62.03 -104.4,-71.86 -22.7,-4.3 -90.24,-6.44 -202.62,-6.44l-216.72 0 0 467.24z"/>
  <path class="fil1" d="M-13258.45 1316.33l294.46 0 113.73 -416.3 551.56 0 118.15 416.3 299.93 0 -539.57 -1800.08 -315.35 0 -522.92 1800.08zm869.5 -726.94l-191.12 -680.3 -185.68 680.3 376.8 0z"/>
  <polygon class="fil1" points="-13725.57,1316.33 -14084.61,1316.33 -14462.08,455.46 -14685.82,762.69 -14685.82,1316.33 -14964.34,1316.33 -14964.34,-483.75 -14685.82,-483.75 -14685.82,294.6 -14149.39,-483.75 -13777.42,-483.75 -14270.35,196.17 "/>
  <path class="fil1" d="M-16957.12 1316.33l294.46 0 113.73 -416.3 551.56 0 118.15 416.3 299.94 0 -539.57 -1800.08 -315.35 0 -522.92 1800.08zm869.49 -726.94l-191.12 -680.3 -185.68 680.3 376.8 0z"/>
  <polygon class="fil1" points="-17756.39,1316.33 -18054.54,1316.33 -18325.28,-55.84 -18597.92,1316.33 -18904.11,1316.33 -19074.87,345.63 -19074.87,-483.75 -18935.07,-483.75 -18736.31,743 -18492.5,-483.75 -18147.65,-483.75 -17914.25,764.38 -17710.75,-483.75 -17431.91,-483.75 "/>
  <path class="fil1" d="M-20874.95 1316.33l140.09 0 0 -765.45 56.35 0c64.02,0 110.74,6.85 140.53,20.54 29.46,13.69 57.32,39.35 83.56,76.16 26.57,37.22 75.55,127.07 146.91,269.54l198.08 399.21 332 0 -166.75 -356.41c-65.92,-142.9 -118.44,-242.62 -157.47,-298.65 -38.77,-56.06 -88.07,-107.41 -147.91,-154.05 120.34,-23.52 210.64,-80 271.15,-169.85 60.48,-89.85 90.59,-203.67 90.59,-341.86 0,-108.67 -20.16,-204.93 -60.19,-289.67 -40.02,-84.27 -93.13,-142.9 -160.07,-175.85 -10.01,-4.94 -20.92,-9.54 -32.77,-13.75l-734.11 0 0 1800.08zm1800.08 -970.7l0 -829.38 -145.89 0 145.89 829.38zm-1659.99 -87.4l205.52 0c133.19,0 216.11,-7.69 249.41,-22.68 32.95,-14.98 59.19,-41.08 77.77,-77.89 18.9,-36.78 28.18,-83.01 28.18,-138.19 0,-62.03 -12.49,-111.69 -37.13,-150.19 -24.67,-38.07 -59.54,-62.03 -104.37,-71.86 -22.74,-4.3 -90.27,-6.44 -202.65,-6.44l-216.72 0 0 467.24z"/>
  <path class="fil1" d="M-20874.95 1316.33l-138.4 0 0 -1800.08 138.4 0 0 1800.08zm-1276.61 0l-464.61 0c-19.37,-7.29 -36.98,-15.71 -52.84,-25.25l-6.06 -3.69 0 -1771.14 19.49 0 0 960.2c0,158.29 3.51,260.55 10.24,307.19 11.85,75.31 39.7,136.06 83.85,181.41 44.5,45.79 105.01,68.46 181.85,68.46 77.8,0 136.7,-21.39 176.41,-64.6 39.67,-43.22 63.37,-95.85 71.39,-158.73 7.99,-62.91 12.14,-166.87 12.14,-312.34l0 -981.58 278.49 0 0 930.67c0,220.76 -7.34,376.94 -22.38,468.06 -15.04,91.14 -42.57,168.15 -82.92,231.06 -40,62.88 -93.78,112.53 -161.01,149.75 -13.84,7.61 -28.53,14.48 -44.04,20.54z"/>
  <path class="fil1" d="M-23917.87 -483.75c69.37,30.6 128.19,87.72 176.43,171.63 53.13,92.43 79.7,211.81 79.7,358.13 0,112.94 -15.36,207.51 -45.76,284.52 -30.72,77.01 -69.46,137.34 -116.54,181.41 -47.05,43.66 -95.06,72.74 -143.72,86.87 -66.27,17.52 -161.98,26.51 -287.47,26.51l-180.56 0 0 691.01 -39.35 0 0 -1800.08 557.27 0zm1242.81 1771.14l0 -1771.14 -259.03 0 0 945.63c0,205.81 8.95,361.56 27.21,466.8 12.49,71.45 38.09,139.07 77.48,204.11 38.21,63.06 89.65,114.46 154.34,154.61zm-1760.72 -1496.4l0 523.71 151.41 0c109.17,0 181.85,-9.83 218.65,-29.09 36.81,-19.25 65.63,-49.21 86.43,-90.7 20.8,-41.08 31.37,-88.57 31.37,-143.34 0,-67.18 -14.72,-122.36 -43.86,-166.02 -29.43,-43.65 -66.27,-71.01 -111.39,-82.16 -32.97,-8.11 -99.24,-12.41 -199.11,-12.41l-133.51 0z"/>
  <g id="_1945652511216">
   <polygon class="fil1" points="-24714.28,1316.33 -24714.28,-483.75 -24475.14,-483.75 -24475.14,1316.33 "/>
   <polygon class="fil1" points="-26194.52,-483.75 -26194.52,1316.33 -26275.25,1316.33 -26275.25,-483.75 "/>
  </g>
  <polygon class="fil1" points="-26644.26,1316.33 -26644.26,-483.75 -26275.25,-483.75 -26275.25,1316.33 "/>
  <path class="fil1" d="M-28085.36 -483.75l0 1800.08 -522.78 0 0 -1800.08 522.78 0zm-1723.66 1800.08l-66.42 0 0 -180.5c18.31,42.87 44.09,107.61 66.42,180.5zm-66.42 -1326.05l0 -469c54.66,21.86 108.52,96.29 58.22,326 0,0 -14.45,48.92 -58.22,142.99zm611.34 1178.64l0 -1526.21c-24.43,312.34 -117.47,623.31 -258.39,886.11 72.53,126.98 190.01,334.93 258.39,640.1z"/>
  <path class="fil1" d="M-31675.52 1316.33l15.71 0 4.07 -1666.31 469.2 -1.2 -3.31 1084.99c234.78,-261.17 357.11,-548.31 389.97,-865.72 32.89,-317.4 -175.76,-339.55 -175.76,-339.55l-699.88 1.14 0 1786.65zm910.19 0l889.89 0 0 -180.5c-14.28,-33.35 -24.02,-53.46 -24.02,-53.46l-284.54 -527.72c0,0 112.62,-196.85 223.89,-398.63 36.05,-65.33 63.73,-120.72 84.68,-165.75l0 -469c-5.39,-2.17 -10.77,-3.8 -16.09,-5.03l-59.48 0c-3.36,0.73 -5.26,1.31 -5.26,1.31l-354.65 0.5 0 0c34.87,448.98 -64.31,884.85 -158.85,1208.76 -56.88,194.78 -180.35,412.79 -295.54,589.51z"/>
  <path class="fil1" d="M-33475.57 1316.33l0 -1800.08 569.88 0 1.08 1800.08 -570.96 0zm1800.05 0l-579.04 0 2.81 -1800.08 496.21 0 -1.7 13.55 81.72 -0.12 0 1786.65z"/>
  <polygon class="fil1" points="-7329.96,-483.75 -7014.61,-483.75 -7025.35,-519.63 -7319.55,-519.63 "/>
  <polygon class="fil1" points="-8355.76,-483.75 -9446.74,-483.75 -9446.74,-519.63 -8355.76,-519.63 "/>
  <path class="fil1" d="M-11269.5 -483.75l872.51 0c-66.86,-23.85 -162.8,-35.87 -287.68,-35.87l-584.83 0 0 35.87z"/>
  <polygon class="fil1" points="-12420.17,-483.75 -12735.53,-483.75 -12725.11,-519.63 -12430.91,-519.63 "/>
  <path class="fil1" d="M-14964.34 -483.75l278.52 0 0 -35.87 -278.52 0 0 35.87zm814.95 0l371.97 0 26.01 -35.87 -373.26 0 -24.72 35.87z"/>
  <polygon class="fil1" points="-16118.85,-483.75 -16434.2,-483.75 -16423.79,-519.63 -16129.59,-519.63 "/>
  <path class="fil1" d="M-19074.87 -519.63l0 35.87 139.8 0 -5.82 -35.87 -133.98 0zm582.37 35.87l344.85 0 -6.7 -35.87 -331.01 0 -7.14 35.87zm781.74 0l278.84 0 6.46 -35.87 -279.45 0 -5.85 35.87z"/>
  <path class="fil1" d="M-19074.87 -519.63l0 35.87 -145.89 0 -6.32 -35.87 152.2 0zm-1065.97 35.87l-734.11 0 0 -35.87 446.44 0c124.88,0 220.81,12.03 287.67,35.87z"/>
  <path class="fil1" d="M-22675.06 -519.63l0 35.87 19.49 0 0 -35.87 -19.49 0zm555.37 35.87l278.49 0 0 -35.87 -278.49 0 0 35.87zm1106.35 0l138.4 0 0 -35.87 -138.4 0 0 35.87z"/>
  <path class="fil1" d="M-0 1764.22l206.16 0c168.68,0 278.49,8.98 329.72,27.39 7.26,2.55 14.37,5.39 21.39,8.49l-557.27 0 0 -35.87zm1800.08 0l0 35.87 -259.03 0 0 -35.87 259.03 0z"/>
  <path class="fil2" d="M-8274.3 5475.16l0 116.36c-12.87,-3.28 -24.49,-4.89 -34.93,-4.89 -19.08,0 -34.59,5.03 -46.79,14.98 -12.08,10.13 -21.53,24.96 -28.2,44.68 -6.7,19.72 -11.26,43.21 -13.87,70.43 -2.46,27.24 -3.74,60.33 -3.74,99.45l0 108.9c0,26.42 -6.2,46.14 -18.58,59.34 -12.41,13.22 -28.06,19.89 -47.14,19.89 -18.72,0 -34.23,-6.67 -46.29,-20.04 -12.06,-13.37 -18.11,-33.09 -18.11,-59.19l0 -363.08c0,-58.52 21.21,-87.86 63.43,-87.86 21.5,0 37.16,6.85 46.61,20.54 9.63,13.69 14.86,34.09 15.83,60.8 15.48,-26.71 31.45,-47.11 47.93,-60.8 16.47,-13.69 38.33,-20.54 65.72,-20.54 6.09,0 12.14,0.35 18.14,1.02zm-1800.08 475.05l0 -184.98c22.59,-24.78 53.46,-41.26 92.61,-49.8 8.16,-1.96 28.7,-6.2 61.47,-12.91 32.77,-6.67 60.98,-12.7 84.27,-18.4 23.32,-5.56 48.74,-12.23 76.16,-20.22 -1.64,-34.41 -8.48,-59.69 -20.72,-75.66 -12.41,-16.12 -37.66,-24.11 -76.31,-24.11 -33.09,0 -58.02,4.56 -74.67,13.84 -16.8,9.13 -31.13,23 -43.04,41.58 -11.91,18.43 -20.37,30.49 -25.25,36.52 -5.06,5.88 -15.65,8.81 -31.8,8.81 -14.66,0 -27.39,-4.71 -37.98,-14.16 -1.72,-1.49 -3.31,-3.07 -4.74,-4.74l0 -77.28c3.51,-7.08 7.87,-14.1 13.05,-21.04 16.3,-21.68 41.57,-39.44 75.96,-53.49 34.41,-14.01 77.3,-21.01 128.65,-21.01 57.23,0 102.38,6.85 135.15,20.37 32.77,13.55 55.91,34.91 69.46,64.22 13.52,29.35 20.37,68.17 20.37,116.57 0,30.67 -0.15,56.59 -0.32,77.95 -0.18,21.36 -0.32,45.15 -0.65,71.24 0,24.46 4.07,50.03 12.23,76.63 8.13,26.39 12.06,43.51 12.06,51.17 0,13.37 -6.2,25.6 -18.76,36.52 -12.73,10.94 -26.89,16.47 -42.87,16.47 -13.37,0 -26.59,-6.2 -39.61,-18.76 -13.05,-12.55 -26.92,-30.63 -41.58,-54.45 -31.63,24.46 -62.12,42.72 -91.46,54.95 -29.52,12.23 -62.61,18.26 -99.13,18.26 -33.41,0 -62.94,-6.67 -88.19,-19.89 -17.56,-9.16 -32.36,-20.54 -44.36,-34.2zm314.51 -208.06c-19.08,7.02 -46.81,14.51 -83.33,22.18 -36.34,7.84 -61.62,13.7 -75.63,17.3 -14.02,3.74 -27.39,10.91 -40.11,21.5 -12.73,10.77 -19.08,25.6 -19.08,44.85 0,19.72 7.49,36.52 22.5,50.35 14.83,13.87 34.41,20.89 58.69,20.89 25.75,0 49.57,-5.71 71.25,-16.97 21.85,-11.41 37.83,-25.93 48.1,-43.86 11.73,-19.72 17.61,-52.31 17.61,-97.64l0 -18.61zm260.35 182.93l0 -565.41c0,-26.07 5.85,-45.79 17.44,-59.16 11.59,-13.37 27.24,-20.04 46.96,-20.04 19.55,0 35.52,6.67 47.61,19.87 12.06,13.22 18.08,32.94 18.08,59.33l0 565.41c0,26.42 -6.17,46.14 -18.41,59.34 -12.23,13.22 -28.06,19.89 -47.28,19.89 -19.07,0 -34.58,-6.85 -46.46,-20.54 -11.91,-13.69 -17.94,-33.27 -17.94,-58.69zm573.04 67.5l-214.06 0c-30.96,0 -52.99,-6.85 -66.19,-20.72 -13.19,-13.84 -19.89,-36.02 -19.89,-66.18l0 -526.58c0,-30.84 6.85,-52.99 20.39,-66.54 13.52,-13.52 35.37,-20.36 65.69,-20.36l226.96 0c33.41,0 62.44,2.11 86.87,6.17 24.63,4.24 46.64,12.08 66.04,23.99 16.62,9.77 31.13,22.32 44.01,37.48 12.73,15.16 22.35,31.8 29.02,50.06 6.7,18.4 10.13,37.66 10.13,58.02 0,70.11 -35.06,121.46 -105.16,153.91 92.11,29.35 138.07,86.26 138.07,171.02 0,39.15 -10.09,74.52 -30.17,105.83 -20.04,31.46 -47.11,54.6 -81.17,69.43 -21.36,8.98 -45.82,15.33 -73.53,18.93 -27.74,3.75 -60.16,5.53 -97.02,5.53zm-10.59 -311.06l-147.7 0 0 204.44 152.44 0c96.03,0 143.95,-34.56 143.95,-103.7 0,-35.37 -12.41,-60.98 -37.33,-76.95 -24.78,-15.8 -61.97,-23.79 -111.36,-23.79zm-147.7 -282.7l0 180.97 130.09 0c35.37,0 62.61,-3.43 81.87,-10.12 19.4,-6.67 34.06,-19.4 44.33,-38.16 7.99,-13.37 11.91,-28.35 11.91,-44.82 0,-35.37 -12.55,-58.84 -37.83,-70.43 -25.11,-11.59 -63.58,-17.44 -115.11,-17.44l-115.25 0z"/>
  <path class="fil2" d="M-11874.49 5496.9l0 103.96c6.32,-2.55 12.38,-6.58 18.17,-12.11 11.09,-10.42 16.47,-23.46 16.47,-39.44 0,-21.48 -11.53,-38.97 -34.65,-52.4zm1800.11 453.31l0 -184.98 -0.82 0.88c-22.65,25.13 -33.91,55.44 -33.91,91.14 0,26.42 6.85,50.88 20.54,73.53 4.18,6.93 8.92,13.4 14.19,19.43zm0 -304.24l0 -77.28c-7.49,15.01 -11.24,30.34 -11.24,45.97 0,12.32 3.78,22.76 11.24,31.31zm-1298.55 188.13c0,35.87 -8.81,66.68 -26.25,92.28 -17.44,25.6 -43.36,45 -77.59,58.2 -34.23,13.2 -75.81,19.72 -124.88,19.72 -46.81,0 -86.9,-7.17 -120.34,-21.5 -33.41,-14.19 -58.02,-32.13 -74,-53.66 -15.83,-21.33 -23.82,-42.87 -23.82,-64.55 0,-14.33 5.06,-26.57 15.33,-36.69 10.12,-10.27 23,-15.3 38.65,-15.3 13.69,0 24.11,3.42 31.45,10.09 7.35,6.67 14.34,15.98 21.04,28.2 13.37,23.15 29.35,40.58 47.93,52 18.58,11.59 44.01,17.29 76.13,17.29 26.1,0 47.46,-5.88 64.07,-17.44 16.8,-11.59 25.11,-24.96 25.11,-39.94 0,-23 -8.63,-39.62 -25.93,-50.21 -17.44,-10.44 -45.96,-20.57 -85.76,-30.17 -44.83,-11.09 -81.34,-22.82 -109.55,-35.06 -28.06,-12.23 -50.56,-28.53 -67.5,-48.6 -16.8,-20.04 -25.28,-44.82 -25.28,-74 0,-26.28 7.84,-50.88 23.32,-74.2 15.65,-23.29 38.65,-41.72 69.14,-55.59 30.31,-13.84 67,-20.86 110.04,-20.86 33.74,0 64.08,3.42 90.79,10.44 26.92,6.99 49.42,16.44 67.35,28.2 18.08,11.88 31.78,24.93 41.08,39.27 9.45,14.37 14.16,28.2 14.16,42.07 0,14.83 -5.03,27.24 -15.15,36.69 -9.95,9.6 -24.29,14.34 -42.72,14.34 -13.34,0 -24.78,-3.75 -34.23,-11.41 -9.28,-7.67 -20.04,-19.07 -32.27,-34.41 -9.77,-12.7 -21.36,-22.97 -34.73,-30.63 -13.37,-7.67 -31.45,-11.41 -54.45,-11.41 -23.47,0 -43.04,5.03 -58.7,14.98 -15.48,10.12 -23.32,22.68 -23.32,37.69 0,13.69 5.7,24.93 17.15,33.56 11.56,8.81 26.89,16.15 46.29,21.86 19.4,5.7 46.14,12.73 80.2,21.04 40.44,9.77 73.53,21.68 99.13,35.37 25.6,13.69 45,29.84 58.2,48.57 13.22,18.61 19.9,39.8 19.9,63.76zm598.64 -94.71c0,38.94 -6.03,74.67 -18.08,107.44 -12.23,32.77 -29.67,60.98 -52.67,84.44 -22.82,23.64 -50.38,41.58 -82.16,54.13 -31.8,12.56 -67.68,18.9 -107.44,18.9 -39.61,0 -75.17,-6.35 -106.62,-19.07 -31.48,-12.7 -58.87,-30.96 -82.02,-54.78 -23,-23.64 -40.58,-51.67 -52.49,-83.97 -11.91,-32.42 -17.94,-68.15 -17.94,-107.26 0,-39.44 6.03,-75.63 18.08,-108.41 12.23,-32.77 29.52,-60.83 52.2,-84.12 22.65,-23.17 50.04,-41.11 82.16,-53.66 32.09,-12.56 67.65,-18.9 106.62,-18.9 39.44,0 75.31,6.35 107.44,19.07 32.13,12.73 59.66,30.99 82.66,54.63 22.97,23.47 40.44,51.5 52.31,84.12 11.91,32.45 17.94,68.29 17.94,107.44zm-131.08 0c0,-53.17 -11.73,-94.42 -35.02,-124.09 -23.5,-29.49 -54.8,-44.33 -94.24,-44.33 -25.6,0 -47.93,6.52 -67.32,19.72 -19.4,13.2 -34.41,32.77 -44.85,58.52 -10.59,25.78 -15.8,55.94 -15.8,90.18 0,34.06 5.21,63.9 15.48,89.33 10.44,25.43 25.1,45 44.36,58.52 19.22,13.54 42.04,20.22 68.14,20.22 39.44,0 70.75,-14.83 94.24,-44.65 23.29,-29.67 35.02,-70.93 35.02,-123.41zm351.84 -193.2l0 15.8c23,-30.31 48.1,-52.49 75.31,-66.68 27.24,-14.16 58.55,-21.18 93.92,-21.18 34.38,0 65.04,7.49 92.26,22.5 27.06,14.83 47.28,36.02 60.65,63.41 8.66,16 14.19,33.12 16.8,51.7 2.46,18.4 3.74,41.9 3.74,70.57l0 242.76c0,26.1 -6.03,45.82 -17.94,59.19 -11.88,13.37 -27.53,20.04 -46.61,20.04 -19.4,0 -35.23,-6.85 -47.46,-20.54 -12.06,-13.69 -18.08,-33.27 -18.08,-58.69l0 -217.48c0,-42.86 -6.03,-75.81 -17.93,-98.63 -11.91,-22.65 -35.7,-34.06 -71.43,-34.06 -23.14,0 -44.33,6.85 -63.58,20.69 -19.07,13.87 -33.09,32.94 -41.9,57.23 -6.35,19.4 -9.6,55.59 -9.6,108.9l0 163.35c0,26.42 -6.2,46.14 -18.43,59.34 -12.23,13.22 -28.03,19.89 -47.28,19.89 -18.76,0 -34.23,-6.85 -46.29,-20.54 -12.08,-13.69 -18.11,-33.27 -18.11,-58.69l0 -376.92c0,-24.78 5.38,-43.36 16.15,-55.59 10.91,-12.23 25.6,-18.43 44.33,-18.43 11.41,0 21.86,2.78 30.99,8.16 9.3,5.39 16.62,13.52 22.18,24.29 5.53,10.76 8.31,24.14 8.31,39.61z"/>
  <path class="fil2" d="M-11874.49 5496.9l0 103.96c-5.62,2.25 -11.41,3.37 -17.38,3.37 -4.71,0 -16.3,-2.93 -34.56,-8.78 -18.41,-5.88 -34.56,-8.81 -48.57,-8.81 -19.07,0 -34.58,5.03 -46.78,14.98 -12.09,10.13 -21.54,24.96 -28.21,44.68 -6.7,19.72 -11.26,43.21 -13.87,70.43 -2.46,27.24 -3.75,60.33 -3.75,99.45l0 108.9c0,26.42 -6.2,46.14 -18.58,59.34 -12.41,13.22 -28.06,19.89 -47.14,19.89 -18.72,0 -34.23,-6.67 -46.29,-20.04 -12.06,-13.37 -18.11,-33.09 -18.11,-59.19l0 -363.08c0,-58.52 21.21,-87.86 63.43,-87.86 21.51,0 37.16,6.85 46.61,20.54 9.63,13.69 14.86,34.09 15.83,60.8 15.48,-26.71 31.45,-47.11 47.93,-60.8 16.47,-13.69 38.33,-20.54 65.72,-20.54 27.39,0 53.95,6.85 79.7,20.54l4.01 2.22zm-1800.08 148.9l0 -123.59c8.48,-11.03 17.12,-20.25 25.89,-27.53 16.47,-13.69 38.33,-20.54 65.72,-20.54 27.39,0 53.95,6.85 79.7,20.54 25.78,13.69 38.65,31.95 38.65,54.63 0,15.98 -5.39,29.02 -16.47,39.44 -10.91,10.44 -22.82,15.48 -35.55,15.48 -4.71,0 -16.3,-2.93 -34.56,-8.78 -18.41,-5.88 -34.56,-8.81 -48.57,-8.81 -19.07,0 -34.58,5.03 -46.78,14.98 -11.97,10.04 -21.36,24.7 -28.03,44.18zm562.1 73.85l-129.94 0 0 198.26c0,28.38 -6.67,49.71 -20.04,64.4 -13.37,14.66 -30.31,22 -50.53,22 -21.36,0 -38.65,-7.17 -51.7,-21.68 -13.02,-14.51 -19.54,-35.87 -19.54,-63.76l0 -539.77c0,-31.16 7.17,-53.48 21.5,-66.86 14.37,-13.37 37.02,-20.04 68.32,-20.04l181.93 0c53.81,0 95.21,4.07 124.23,12.37 28.7,7.99 53.49,21.21 74.35,39.62 20.86,18.58 36.69,41.08 47.43,67.82 10.94,26.74 16.33,56.91 16.33,90.32 0,71.42 -22.03,125.37 -65.89,162.21 -44.01,36.69 -109.37,55.09 -196.44,55.09zm-34.38 -320.83l-95.56 0 0 214.21 95.56 0c33.41,0 61.44,-3.57 83.94,-10.59 22.33,-6.99 39.47,-18.4 51.35,-34.38 11.73,-15.83 17.61,-36.87 17.61,-62.61 0,-30.99 -9.13,-56.09 -27.21,-75.49 -20.39,-20.72 -62.29,-31.13 -125.7,-31.13zm732.65 372.67l-255.14 0c0.32,29.67 6.35,55.77 17.93,78.42 11.56,22.67 27.07,39.61 46.29,51.06 19.26,11.56 40.61,17.26 63.76,17.26 15.65,0 29.81,-1.79 42.72,-5.53 13.02,-3.6 25.43,-9.3 37.48,-17.11 12.23,-7.84 23.32,-16.15 33.41,-25.11 10.3,-8.98 23.5,-21.04 39.79,-36.37 6.67,-5.7 16.15,-8.63 28.53,-8.63 13.37,0 24.29,3.74 32.63,11.09 8.13,7.17 12.38,17.58 12.38,30.95 0,11.74 -4.74,25.46 -13.87,41.26 -9.28,15.65 -23.15,30.81 -41.9,45.15 -18.58,14.51 -41.9,26.59 -70.1,36.05 -28.2,9.63 -60.63,14.33 -97.14,14.33 -83.8,0 -148.87,-23.96 -195.33,-71.71 -46.46,-47.78 -69.61,-112.5 -69.61,-194.34 0,-38.48 5.7,-74.35 17.12,-107.3 11.41,-32.92 28.2,-61.12 50.06,-84.76 22,-23.49 49.07,-41.57 81.19,-54.13 32.1,-12.55 67.79,-18.9 106.94,-18.9 51.03,0 94.71,10.74 131.08,32.28 36.52,21.5 63.72,49.24 81.98,83.48 18.11,34.06 27.24,68.79 27.24,104.16 0,32.77 -9.45,54.13 -28.21,63.9 -18.75,9.63 -45.17,14.51 -79.23,14.51zm-255.14 -74.32l236.38 0c-3.1,-44.53 -15.15,-77.77 -36.02,-99.95 -20.86,-22 -48.28,-33.09 -82.33,-33.09 -32.63,0 -59.19,11.24 -80.06,33.59 -20.86,22.5 -33.59,55.59 -37.98,99.45z"/>
  <path class="fil2" d="M-15474.68 5316.57l0 244.34 87.11 134.94 0 222.05c0,29.35 6.52,51.03 19.54,65.22 13.05,14.19 30.17,21.18 51.2,21.18 20.54,0 37.66,-7.17 51.03,-21.5 13.37,-14.37 20.04,-35.87 20.04,-64.9l0 -222.05 175.26 -268.83c14.69,-22 25.11,-39.15 31.16,-51.52 6.03,-12.38 8.95,-24.96 8.95,-37.33 0,-15.16 -5.88,-28.7 -17.93,-40.26 -11.91,-11.59 -26.74,-17.44 -44.5,-17.44 -11.59,0 -21.19,2.11 -29.17,6.18 -7.98,4.09 -15.19,10.12 -21.68,17.93 -6.7,7.84 -12.58,16.15 -17.93,24.96 -5.56,8.95 -12.23,19.87 -20.07,32.91l-132.37 212.45 -130.93 -212.45c-11.59,-18.96 -21.51,-34.23 -29.7,-45.88zm1800.11 329.22l0 -123.59c-7.46,9.72 -14.8,20.78 -22.03,33.27 -0.96,-26.71 -6.2,-47.11 -15.83,-60.8 -9.45,-13.69 -25.1,-20.54 -46.61,-20.54 -42.22,0 -63.43,29.35 -63.43,87.86l0 363.08c0,26.1 6.06,45.82 18.11,59.19 12.06,13.37 27.56,20.04 46.29,20.04 19.07,0 34.73,-6.67 47.13,-19.89 12.38,-13.2 18.58,-32.92 18.58,-59.34l0 -108.9c0,-39.12 1.29,-72.21 3.75,-99.45 2.6,-27.21 7.17,-50.7 13.87,-70.43l0.18 -0.5zm-840.47 93.6c0,38.94 -6.03,74.67 -18.08,107.44 -12.23,32.77 -29.67,60.98 -52.67,84.44 -22.82,23.64 -50.39,41.58 -82.16,54.13 -31.8,12.56 -67.67,18.9 -107.44,18.9 -39.62,0 -75.17,-6.35 -106.62,-19.07 -31.48,-12.7 -58.87,-30.96 -82.01,-54.78 -23,-23.64 -40.58,-51.67 -52.49,-83.97 -11.91,-32.42 -17.94,-68.15 -17.94,-107.26 0,-39.44 6.03,-75.63 18.08,-108.41 12.23,-32.77 29.52,-60.83 52.2,-84.12 22.65,-23.17 50.03,-41.11 82.16,-53.66 32.1,-12.56 67.65,-18.9 106.62,-18.9 39.44,0 75.31,6.35 107.44,19.07 32.13,12.73 59.66,30.99 82.66,54.63 22.97,23.47 40.44,51.5 52.31,84.12 11.91,32.45 17.94,68.29 17.94,107.44zm-131.08 0c0,-53.17 -11.73,-94.42 -35.02,-124.09 -23.5,-29.49 -54.8,-44.33 -94.24,-44.33 -25.6,0 -47.93,6.52 -67.33,19.72 -19.4,13.2 -34.41,32.77 -44.85,58.52 -10.59,25.78 -15.8,55.94 -15.8,90.18 0,34.06 5.21,63.9 15.48,89.33 10.45,25.43 25.11,45 44.36,58.52 19.22,13.54 42.05,20.22 68.15,20.22 39.44,0 70.75,-14.83 94.24,-44.65 23.29,-29.67 35.02,-70.93 35.02,-123.41zm572.11 191.38l0 -16.8c-15.65,19.75 -31.95,36.37 -49.24,49.74 -17.12,13.37 -35.87,23.32 -56.24,29.81 -20.39,6.53 -43.54,9.8 -69.64,9.8 -31.63,0 -59.83,-6.52 -84.76,-19.57 -24.96,-13.05 -44.35,-30.98 -58.05,-53.95 -16.12,-27.71 -24.29,-67.5 -24.29,-119.5l0 -258.27c0,-26.25 5.88,-45.65 17.61,-58.52 11.73,-12.87 27.39,-19.4 46.79,-19.4 19.57,0 35.55,6.52 47.6,19.57 12.06,13.02 18.11,32.44 18.11,58.34l0 208.7c0,30.14 2.6,55.59 7.63,76.13 5.06,20.54 14.19,36.66 27.42,48.25 13.2,11.59 31.13,17.44 53.78,17.44 22,0 42.72,-6.52 62.11,-19.55 19.4,-13.05 33.59,-30.17 42.57,-51.2 7.31,-18.43 10.91,-58.84 10.91,-121.31l0 -158.46c0,-25.9 6.03,-45.32 18.08,-58.34 12.23,-13.05 28.06,-19.57 47.46,-19.57 19.4,0 35.05,6.52 46.78,19.4 11.91,12.87 17.76,32.27 17.76,58.52l0 377.76c0,24.78 -5.71,43.36 -16.94,55.91 -11.41,12.38 -25.93,18.58 -43.86,18.58 -17.76,0 -32.59,-6.52 -44.18,-19.4 -11.59,-12.87 -17.44,-30.98 -17.44,-54.13z"/>
  <path class="fil2" d="M-15474.68 5316.57l0 244.34 -83.91 -130c-15.01,-23.96 -25.6,-42.54 -31.81,-55.91 -6.17,-13.37 -9.27,-24.93 -9.27,-34.88 0,-16.15 6.35,-30.17 18.9,-42.07 12.56,-11.73 28.03,-17.59 46.64,-17.59 19.4,0 34.06,5.53 44.18,16.44 4.19,4.62 9.28,11.18 15.27,19.66zm-1800.08 668.46l0 -253.59c14.07,-6.91 29.76,-12.23 47.05,-16 8.17,-1.96 28.7,-6.2 61.48,-12.91 32.77,-6.67 60.97,-12.7 84.26,-18.4 23.32,-5.56 48.75,-12.23 76.16,-20.22 -1.64,-34.41 -8.48,-59.69 -20.72,-75.66 -12.41,-16.12 -37.65,-24.11 -76.31,-24.11 -33.09,0 -58.02,4.56 -74.67,13.84 -16.8,9.13 -31.13,23 -43.04,41.58 -11.91,18.43 -20.36,30.49 -25.25,36.52 -4.77,5.53 -14.39,8.46 -28.96,8.78l0 -147.7c12.38,-8.54 26.86,-16.18 43.45,-22.97 34.41,-14.01 77.3,-21.01 128.65,-21.01 57.23,0 102.38,6.85 135.15,20.37 32.77,13.55 55.92,34.91 69.46,64.22 13.52,29.35 20.36,68.17 20.36,116.57 0,30.67 -0.15,56.59 -0.32,77.95 -0.17,21.36 -0.32,45.15 -0.64,71.24 0,24.46 4.07,50.03 12.23,76.63 8.13,26.39 12.06,43.51 12.06,51.17 0,13.37 -6.2,25.6 -18.76,36.52 -12.72,10.94 -26.89,16.47 -42.86,16.47 -13.37,0 -26.6,-6.2 -39.62,-18.76 -13.05,-12.55 -26.92,-30.63 -41.57,-54.45 -31.63,24.46 -62.12,42.72 -91.46,54.95 -29.52,12.23 -62.61,18.26 -99.13,18.26 -32.89,0 -62,-6.46 -86.99,-19.28zm268.95 -242.88c-19.07,7.02 -46.81,14.51 -83.33,22.18 -36.34,7.84 -61.62,13.7 -75.63,17.3 -14.02,3.74 -27.39,10.91 -40.11,21.5 -12.73,10.77 -19.07,25.6 -19.07,44.85 0,19.72 7.49,36.52 22.5,50.35 14.83,13.87 34.41,20.89 58.69,20.89 25.75,0 49.56,-5.71 71.24,-16.97 21.86,-11.41 37.83,-25.93 48.1,-43.86 11.73,-19.72 17.61,-52.31 17.61,-97.64l0 -18.61zm617.37 187.67l0 -12.87c-17.44,20.04 -34.7,36.34 -51.82,48.89 -16.97,12.56 -35.55,22.18 -55.44,28.7 -19.9,6.52 -41.58,9.77 -65.22,9.77 -31.13,0 -59.98,-6.67 -86.55,-19.89 -26.6,-13.2 -49.74,-31.95 -69.14,-56.56 -19.4,-24.46 -34.06,-53.31 -44.18,-86.4 -9.95,-33.09 -15.01,-68.96 -15.01,-107.44 0,-81.52 19.89,-145.09 59.69,-190.59 39.76,-45.47 92.28,-68.32 157.15,-68.32 37.66,0 69.28,6.52 95.06,19.43 25.75,12.87 51.03,32.77 75.46,59.66l0 -192.56c0,-26.71 5.38,-46.93 16,-60.62 10.74,-13.69 25.89,-20.54 45.64,-20.54 19.72,0 34.88,6.35 45.65,18.9 10.59,12.56 15.98,31.13 15.98,55.59l0 574.85c0,24.78 -5.7,43.54 -17.12,55.91 -11.59,12.38 -26.42,18.58 -44.5,18.58 -17.79,0 -32.62,-6.52 -44.18,-19.4 -11.59,-12.87 -17.46,-31.31 -17.46,-55.09zm-256.28 -191.41c0,35.37 5.56,65.39 16.47,90.32 10.91,24.78 25.93,43.36 45.18,55.91 19.05,12.55 39.94,18.93 62.44,18.93 22.97,0 43.83,-6.02 62.76,-17.93 18.9,-11.91 34.06,-30.17 45.32,-54.78 11.24,-24.78 16.94,-55.44 16.94,-92.46 0,-34.56 -5.7,-64.4 -16.94,-89.33 -11.26,-25.11 -26.57,-44.19 -45.82,-57.41 -19.22,-13.19 -40.26,-19.72 -63.26,-19.72 -23.79,0 -45.15,6.7 -63.9,20.22 -18.76,13.55 -33.27,32.94 -43.69,58.2 -10.27,25.45 -15.51,54.8 -15.51,88.04zm874.35 33.09l-255.14 0c0.32,29.67 6.35,55.77 17.94,78.42 11.56,22.67 27.06,39.61 46.29,51.06 19.25,11.56 40.61,17.26 63.76,17.26 15.65,0 29.81,-1.79 42.72,-5.53 13.02,-3.6 25.43,-9.3 37.48,-17.11 12.23,-7.84 23.32,-16.15 33.41,-25.11 10.3,-8.98 23.5,-21.04 39.8,-36.37 6.67,-5.7 16.15,-8.63 28.53,-8.63 13.37,0 24.28,3.74 32.62,11.09 8.13,7.17 12.38,17.58 12.38,30.95 0,11.74 -4.74,25.46 -13.87,41.26 -9.28,15.65 -23.14,30.81 -41.9,45.15 -18.58,14.51 -41.9,26.59 -70.11,36.05 -28.2,9.63 -60.63,14.33 -97.14,14.33 -83.8,0 -148.87,-23.96 -195.33,-71.71 -46.46,-47.78 -69.61,-112.5 -69.61,-194.34 0,-38.48 5.71,-74.35 17.12,-107.3 11.41,-32.92 28.2,-61.12 50.06,-84.76 22,-23.49 49.07,-41.57 81.19,-54.13 32.1,-12.55 67.8,-18.9 106.94,-18.9 51.03,0 94.71,10.74 131.08,32.28 36.52,21.5 63.72,49.24 81.98,83.48 18.11,34.06 27.24,68.79 27.24,104.16 0,32.77 -9.45,54.13 -28.2,63.9 -18.76,9.63 -45.18,14.51 -79.24,14.51zm-255.14 -74.32l236.39 0c-3.1,-44.53 -15.16,-77.77 -36.02,-99.95 -20.86,-22 -48.28,-33.09 -82.33,-33.09 -32.63,0 -59.19,11.24 -80.06,33.59 -20.86,22.5 -33.59,55.59 -37.98,99.45z"/>
  <path class="fil2" d="M-17274.76 5985.03l0 -253.59c-18.14,8.89 -33.59,20.45 -46.38,34.67 -22.65,25.13 -33.91,55.44 -33.91,91.14 0,26.42 6.85,50.88 20.54,73.53 13.69,22.68 33.27,40.44 58.55,53.63l1.2 0.61zm0 -320.19l0 -147.7c-13.26,9.13 -24.08,19.31 -32.51,30.52 -16.15,21.68 -24.28,44 -24.28,67 0,14.69 5.38,26.74 15.98,36.05 10.59,9.45 23.32,14.16 37.98,14.16l2.84 -0.03zm-1545.61 -117.36l0 15.83c24.46,-30.31 50.06,-52.67 76.45,-66.86 26.42,-14.16 56.27,-21.36 89.68,-21.36 40.26,0 77.1,10.3 110.86,30.98 33.74,20.72 60.48,51.03 80.06,90.82 19.54,39.76 29.35,86.9 29.35,141.35 0,40.08 -5.7,76.95 -16.97,110.51 -11.24,33.59 -26.89,61.8 -46.61,84.62 -19.75,22.82 -43.07,40.29 -69.96,52.52 -26.89,12.2 -55.77,18.4 -86.72,18.4 -37.19,0 -68.46,-7.49 -93.75,-22.5 -25.28,-14.83 -49.39,-36.83 -72.39,-65.86l0 195.98c0,57.38 -20.86,86.08 -62.61,86.08 -24.46,0 -40.76,-7.35 -48.74,-22.18 -7.99,-14.83 -11.88,-36.37 -11.88,-64.72l0 -562.94c0,-24.78 5.35,-43.36 16.3,-55.59 10.74,-12.23 25.6,-18.43 44.33,-18.43 18.43,0 33.59,6.35 45.18,18.9 11.56,12.72 17.44,30.81 17.44,54.45zm255.31 189.63c0,-34.41 -5.24,-63.93 -15.83,-88.54 -10.42,-24.61 -24.93,-43.69 -43.54,-56.91 -18.72,-13.19 -39.26,-19.72 -61.77,-19.72 -36.05,0 -66.36,14.19 -90.96,42.4 -24.64,28.35 -37.01,70.11 -37.01,125.06 0,51.85 12.23,92.25 36.66,120.96 24.63,28.85 54.95,43.21 91.31,43.21 21.51,0 41.58,-6.38 59.98,-18.93 18.43,-12.55 33.27,-31.28 44.5,-56.41 11.09,-25.25 16.65,-55.59 16.65,-91.11zm715.04 -167.13l0 378.73c0,43.36 -4.56,80.55 -13.84,111.68 -9.31,31.31 -23.96,57.06 -44.36,77.45 -20.36,20.37 -47.11,35.52 -80.05,45.32 -32.92,9.95 -74,14.83 -122.92,14.83 -45,0 -85.09,-6.38 -120.49,-18.93 -35.2,-12.55 -62.44,-28.85 -81.66,-48.74 -19.07,-19.87 -28.53,-40.26 -28.53,-61.3 0,-15.97 5.39,-28.85 16.12,-38.94 10.94,-9.95 23.96,-15.01 39.3,-15.01 19.07,0 35.87,8.31 50.21,25.28 7.02,8.46 14.37,17.12 21.68,25.93 7.52,8.63 15.83,16.12 24.78,22.32 9.13,6.2 20.07,10.91 32.77,13.87 12.73,3.07 27.42,4.56 43.86,4.56 33.76,0 59.83,-4.74 78.41,-14.04 18.76,-9.45 31.8,-22.5 39.15,-39.44 7.49,-16.8 11.88,-34.88 13.19,-54.13 1.32,-19.22 2.28,-50.06 2.78,-92.75 -20.07,28.03 -43.21,49.39 -69.46,63.9 -26.24,14.66 -57.55,22 -93.74,22 -43.69,0 -81.84,-11.09 -114.43,-33.41 -32.63,-22.35 -57.73,-53.48 -75.17,-93.75 -17.44,-40.11 -26.25,-86.4 -26.25,-138.92 0,-39.26 5.39,-74.64 15.98,-106.12 10.77,-31.45 25.93,-58.2 45.65,-79.73 19.72,-21.68 42.39,-37.98 68.32,-49.07 25.75,-10.91 54.13,-16.47 84.94,-16.47 36.84,0 68.96,7.2 96.03,21.36 27.06,14.19 52.17,36.55 75.31,66.86l0 -17.76c0,-22.68 5.7,-40.29 16.8,-52.67 11.09,-12.55 25.43,-18.75 43.04,-18.75 25.11,0 41.9,8.31 50.21,24.78 8.31,16.48 12.38,40.11 12.38,71.07zm-377.56 165.31c0,52.84 11.56,92.78 34.56,119.85 23.14,27.06 52.81,40.58 89.5,40.58 21.53,0 42.07,-5.85 61.3,-17.44 19.25,-11.59 34.91,-29.17 46.96,-52.49 12.06,-23.5 18.08,-51.85 18.08,-85.26 0,-53.16 -11.73,-94.56 -35.05,-124.23 -23.29,-29.52 -54.13,-44.36 -92.26,-44.36 -37.19,0 -67,14.19 -89.5,42.57 -22.35,28.35 -33.59,68.61 -33.59,120.78zm625.88 80.87l0 108.9c0,26.42 -6.2,46.14 -18.58,59.34 -12.41,13.22 -28.06,19.89 -47.14,19.89 -18.72,0 -34.23,-6.67 -46.29,-20.04 -12.06,-13.37 -18.11,-33.09 -18.11,-59.19l0 -363.08c0,-58.52 21.22,-87.86 63.44,-87.86 21.5,0 37.16,6.85 46.61,20.54 9.63,13.69 14.86,34.09 15.83,60.8 15.48,-26.71 31.45,-47.11 47.93,-60.8 16.48,-13.69 38.33,-20.54 65.72,-20.54 27.39,0 53.96,6.85 79.7,20.54 25.78,13.69 38.65,31.95 38.65,54.63 0,15.98 -5.38,29.02 -16.47,39.44 -10.91,10.44 -22.82,15.48 -35.55,15.48 -4.71,0 -16.3,-2.93 -34.56,-8.78 -18.4,-5.88 -34.56,-8.81 -48.57,-8.81 -19.07,0 -34.58,5.03 -46.78,14.98 -12.08,10.13 -21.54,24.96 -28.2,44.68 -6.7,19.72 -11.27,43.21 -13.87,70.43 -2.46,27.24 -3.74,60.33 -3.74,99.45z"/>
  <path class="fil2" d="M-20235.17 5907.64l17.61 -89.19c-43.86,-0.96 -65.89,-18.43 -65.89,-52.67 0,-15.8 5.56,-28.85 16.48,-38.94 10.94,-9.95 27.24,-15.01 48.42,-15.01l22.5 0 27.24 -138.89 -49.74 0c-20.71,0 -36.69,-5.24 -47.93,-15.51 -11.26,-10.42 -16.97,-23.14 -16.97,-38.15 0,-15.8 5.56,-28.67 16.48,-38.48 10.94,-9.59 27.24,-14.48 48.42,-14.48l71.25 0 22.32 -109.4c3.6,-18.43 7.52,-32.94 11.76,-43.54 4.21,-10.44 10.27,-18.43 17.76,-23.79 7.34,-5.38 17.12,-8.16 29.35,-8.16 16.8,0 29.67,4.39 38.62,13.37 8.98,8.95 13.37,20.37 13.37,34.41 0,3.25 -2.75,19.22 -8.13,48.25l-17.61 88.86 104.52 0 22.97 -109.4c3.1,-16.65 6.2,-29.99 8.98,-40.11 2.93,-10.27 8.13,-18.9 15.65,-25.93 7.49,-6.99 18.26,-10.42 32.59,-10.42 16.62,0 29.35,4.22 38.48,12.87 9.13,8.63 13.69,20.22 13.69,34.88 0,6.7 -0.5,13.2 -1.29,19.57 -0.82,6.35 -1.81,12.55 -3.1,18.41 -1.32,5.88 -2.14,9.63 -2.28,11.26l-17.79 89.83c45.5,0.96 68.32,18.58 68.32,52.99 0,15.97 -5.39,28.7 -16.3,38.3 -10.77,9.63 -26.92,14.37 -48.1,14.37l-24.46 0 -28.67 138.89 53.13 0c21.19,0 37.33,5.06 48.1,15.33 10.91,10.09 16.3,23.15 16.3,38.62 0,15.65 -5.39,28.38 -15.98,38.15 -10.77,9.63 -26.89,14.51 -48.43,14.51l-73.53 0 -22.5 109.55c-3.57,17.47 -6.67,30.98 -9.28,40.61 -2.78,9.45 -7.99,17.76 -15.51,24.93 -7.67,7.2 -18.76,10.77 -33.09,10.77 -15.8,0 -28.35,-4.39 -37.66,-13.37 -9.3,-8.81 -13.87,-20.54 -13.87,-34.73 0,-13.02 2.28,-29.17 6.7,-48.57l17.61 -89.19 -105.51 0 -22.32 109.55c-5.85,27.06 -11.74,46.49 -17.94,58.37 -6.2,11.91 -19.55,17.93 -39.94,17.93 -16.15,0 -29.03,-4.39 -38.16,-13.37 -9.27,-8.81 -13.84,-20.54 -13.84,-34.73 0,-7.31 0.79,-15.48 2.61,-24.61 1.78,-8.95 3.25,-16.94 4.56,-23.96zm279.28 -334.7l-105.48 0 -28.2 138.89 106.44 0 27.24 -138.89zm281.7 130.09l0 -336.66c0,-28.7 6.53,-50.06 19.4,-64.4 12.87,-14.34 29.84,-21.51 50.88,-21.51 21.83,0 39.3,7.17 52.17,21.51 12.87,14.33 19.4,35.87 19.4,64.4l0 344.5c0,39.12 4.39,71.89 13.19,98.13 8.63,26.24 24.29,46.64 46.46,61.12 22.33,14.51 53.49,21.71 93.57,21.71 55.44,0 94.57,-14.69 117.56,-44.21 23,-29.49 34.41,-74.17 34.41,-134.01l0 -347.25c0,-28.85 6.35,-50.53 19.05,-64.72 12.73,-14.19 29.85,-21.19 51.2,-21.19 21.18,0 38.48,7 51.67,21.19 13.23,14.19 19.9,35.87 19.9,64.72l0 336.66c0,54.77 -5.38,100.59 -15.98,137.11 -10.77,36.69 -30.81,68.82 -60.48,96.53 -25.43,23.46 -55.09,40.58 -88.86,51.52 -33.74,10.74 -73.2,16.12 -118.35,16.12 -53.81,0 -100.1,-5.85 -139.07,-17.44 -38.8,-11.59 -70.43,-29.67 -94.89,-53.95 -24.61,-24.31 -42.54,-55.59 -54.13,-93.6 -11.41,-37.98 -17.12,-83.48 -17.12,-136.29z"/>
  <rect class="fil0 str1" x="-8274.3" y="4916.51" width="1800.09" height="1800.09"/>
  <path class="fil2" d="M-8274.3 5475.16l0 116.36c4.39,1.11 8.96,2.43 13.64,3.92 18.26,5.85 29.84,8.78 34.56,8.78 12.72,0 24.63,-5.04 35.55,-15.48 11.09,-10.42 16.47,-23.46 16.47,-39.44 0,-22.68 -12.87,-40.93 -38.65,-54.63 -20.01,-10.65 -40.56,-17.15 -61.56,-19.52zm476.98 455.94c-31.63,24.46 -62.12,42.72 -91.46,54.95 -29.52,12.23 -62.61,18.26 -99.13,18.26 -33.41,0 -62.94,-6.67 -88.19,-19.89 -25.28,-13.2 -44.85,-30.96 -58.55,-53.63 -13.7,-22.65 -20.54,-47.11 -20.54,-73.53 0,-35.7 11.27,-66.01 33.91,-91.14 22.68,-25.25 53.81,-42.05 93.43,-50.68 8.16,-1.96 28.7,-6.2 61.47,-12.91 32.77,-6.67 60.98,-12.7 84.27,-18.4 23.32,-5.56 48.74,-12.23 76.16,-20.22 -1.64,-34.41 -8.49,-59.69 -20.72,-75.66 -12.41,-16.12 -37.66,-24.11 -76.31,-24.11 -33.09,0 -58.02,4.56 -74.67,13.84 -16.8,9.13 -31.13,23 -43.04,41.58 -11.91,18.43 -20.36,30.49 -25.25,36.52 -5.06,5.88 -15.65,8.81 -31.81,8.81 -14.66,0 -27.39,-4.71 -37.98,-14.16 -10.59,-9.31 -15.98,-21.36 -15.98,-36.05 0,-23 8.13,-45.32 24.29,-67 16.3,-21.68 41.57,-39.44 75.96,-53.49 34.41,-14.01 77.3,-21.01 128.65,-21.01 57.23,0 102.38,6.85 135.15,20.37 32.77,13.55 55.91,34.91 69.46,64.22 13.52,29.35 20.36,68.17 20.36,116.57 0,30.67 -0.15,56.59 -0.32,77.95 -0.18,21.36 -0.32,45.15 -0.65,71.24 0,24.46 4.07,50.03 12.23,76.63 8.13,26.39 12.06,43.51 12.06,51.17 0,13.37 -6.2,25.6 -18.76,36.52 -12.73,10.94 -26.89,16.47 -42.87,16.47 -13.37,0 -26.59,-6.2 -39.61,-18.76 -13.05,-12.55 -26.92,-30.63 -41.58,-54.45zm-8.63 -188.96c-19.08,7.02 -46.81,14.51 -83.33,22.18 -36.34,7.84 -61.62,13.7 -75.64,17.3 -14.01,3.74 -27.39,10.91 -40.11,21.5 -12.72,10.77 -19.07,25.6 -19.07,44.85 0,19.72 7.49,36.52 22.5,50.35 14.83,13.87 34.41,20.89 58.69,20.89 25.75,0 49.57,-5.71 71.25,-16.97 21.85,-11.41 37.83,-25.93 48.1,-43.86 11.73,-19.72 17.61,-52.31 17.61,-97.64l0 -18.61zm378.38 -195.95l0 15.8c23,-30.31 48.1,-52.49 75.31,-66.68 27.24,-14.16 58.55,-21.18 93.92,-21.18 34.38,0 65.04,7.49 92.26,22.5 27.06,14.83 47.28,36.02 60.65,63.41 8.66,16 14.19,33.12 16.8,51.7 2.46,18.4 3.74,41.9 3.74,70.57l0 242.76c0,26.1 -6.03,45.82 -17.93,59.19 -11.88,13.37 -27.54,20.04 -46.61,20.04 -19.4,0 -35.23,-6.85 -47.46,-20.54 -12.06,-13.69 -18.08,-33.27 -18.08,-58.69l0 -217.48c0,-42.86 -6.03,-75.81 -17.93,-98.63 -11.91,-22.65 -35.7,-34.06 -71.42,-34.06 -23.15,0 -44.33,6.85 -63.58,20.69 -19.07,13.87 -33.09,32.94 -41.9,57.23 -6.35,19.4 -9.6,55.59 -9.6,108.9l0 163.35c0,26.42 -6.2,46.14 -18.43,59.34 -12.23,13.22 -28.03,19.89 -47.28,19.89 -18.75,0 -34.23,-6.85 -46.29,-20.54 -12.08,-13.69 -18.11,-33.27 -18.11,-58.69l0 -376.92c0,-24.78 5.38,-43.36 16.15,-55.59 10.91,-12.23 25.6,-18.43 44.33,-18.43 11.41,0 21.85,2.78 30.98,8.16 9.3,5.39 16.62,13.52 22.18,24.29 5.53,10.76 8.31,24.14 8.31,39.61zm829.82 383.62l0 -12.87c-17.44,20.04 -34.7,36.34 -51.82,48.89 -16.97,12.56 -35.55,22.18 -55.44,28.7 -19.9,6.52 -41.58,9.77 -65.22,9.77 -31.13,0 -59.98,-6.67 -86.55,-19.89 -26.6,-13.2 -49.74,-31.95 -69.14,-56.56 -19.4,-24.46 -34.06,-53.31 -44.18,-86.4 -9.94,-33.09 -15.01,-68.96 -15.01,-107.44 0,-81.52 19.89,-145.09 59.69,-190.59 39.76,-45.47 92.28,-68.32 157.15,-68.32 37.66,0 69.29,6.52 95.06,19.43 25.75,12.87 51.03,32.77 75.46,59.66l0 -192.56c0,-26.71 5.38,-46.93 16,-60.62 10.74,-13.69 25.89,-20.54 45.64,-20.54 19.72,0 34.88,6.35 45.65,18.9 10.59,12.56 15.98,31.13 15.98,55.59l0 574.85c0,24.78 -5.7,43.54 -17.12,55.91 -11.59,12.38 -26.42,18.58 -44.5,18.58 -17.79,0 -32.62,-6.52 -44.18,-19.4 -11.59,-12.87 -17.46,-31.31 -17.46,-55.09zm-256.28 -191.41c0,35.37 5.56,65.39 16.47,90.32 10.92,24.78 25.93,43.36 45.18,55.91 19.05,12.55 39.94,18.93 62.44,18.93 22.97,0 43.83,-6.02 62.76,-17.93 18.9,-11.91 34.06,-30.17 45.32,-54.78 11.24,-24.78 16.94,-55.44 16.94,-92.46 0,-34.56 -5.7,-64.4 -16.94,-89.33 -11.26,-25.11 -26.57,-44.19 -45.82,-57.41 -19.22,-13.19 -40.26,-19.72 -63.26,-19.72 -23.79,0 -45.15,6.7 -63.9,20.22 -18.76,13.55 -33.27,32.94 -43.69,58.2 -10.27,25.45 -15.51,54.8 -15.51,88.04z"/>
 </g>
</svg>
